# xmcd
#
# Track frame offsets:
#   150
#   15196
#   30746
#   45825
#   60953
#   76019
#   90714
#   107373
#   124023
#   139335
#   152964
#   168390
#   186006
#   203874
#   212922
#   227420
#   244687
#   263124
#   275251
#   290377
#   305883
#   320631
#   337824
#
# Disc length: 4729 seconds
#
# Revision: 0
# Processed by: cddbd v1.5.1PL0 Copyright (c) Steve Scherf et al.
# Submitted via: Media_Universe 3.0
#
DISCID=2f127717
DTITLE=Buddy Jewell - Tales Of The New West
DYEAR=1900
DGENRE=Country
TTITLE0=Oh Justine
TTITLE1=Parrothead Paradise
TTITLE2=Rosa Danced In Veracruz
TTITLE3=So Hard To Be Strong
TTITLE4=Mama Della
TTITLE5=One Time We Cared
TTITLE6=Come Back Angel
TTITLE7=Pancho Villa's Gold
TTITLE8=Silver Wings In The Stars
TTITLE9=I Get The Bird
TTITLE10=Cold And Lonesome Life
TTITLE11=The Downtown Matinee
TTITLE12=Margarita Madness
TTITLE13=40 Hour Week
TTITLE14=I Heart You
TTITLE15=Peg Leg Jessie's Daughter
TTITLE16=So Love Me Too
TTITLE17=This Aint No Thinkin Thing
TTITLE18=Treasure
TTITLE19=Your Lovin Eyes
TTITLE20=Im A Cowboy
TTITLE21=The Ring
TTITLE22=This Time
EXTD=
EXTT0=
EXTT1=
EXTT2=
EXTT3=
EXTT4=
EXTT5=
EXTT6=
EXTT7=
EXTT8=
EXTT9=
EXTT10=
EXTT11=
EXTT12=
EXTT13=
EXTT14=
EXTT15=
EXTT16=
EXTT17=
EXTT18=
EXTT19=
EXTT20=
EXTT21=
EXTT22=
PLAYORDER=
